<?xml version="1.0" encoding="UTF-8" standalone="no"?>
<svg
   width="1280.0"
   height="600.0"
   viewBox="0.3521881103515625 -0.18675994873046875 1280.0 600.0"
   preserveAspectRatio="none"
   version="1.1"
   id="svg10"
   sodipodi:docname="logo-Inkscape.svg"
   inkscape:version="1.4 (e7c3feb1, 2024-10-09)"
   xmlns:inkscape="http://www.inkscape.org/namespaces/inkscape"
   xmlns:sodipodi="http://sodipodi.sourceforge.net/DTD/sodipodi-0.dtd"
   xmlns:xlink="http://www.w3.org/1999/xlink"
   xmlns="http://www.w3.org/2000/svg"
   xmlns:svg="http://www.w3.org/2000/svg">
  <defs
     id="defs10" />
  <sodipodi:namedview
     id="namedview10"
     pagecolor="#ffffff"
     bordercolor="#000000"
     borderopacity="0.25"
     inkscape:showpageshadow="2"
     inkscape:pageopacity="0.0"
     inkscape:pagecheckerboard="true"
     inkscape:deskcolor="#d1d1d1"
     inkscape:zoom="0.825"
     inkscape:cx="639.39394"
     inkscape:cy="299.39394"
     inkscape:window-width="1728"
     inkscape:window-height="1387"
     inkscape:window-x="1720"
     inkscape:window-y="25"
     inkscape:window-maximized="0"
     inkscape:current-layer="svg10" />
  <g
     id="g6"
     style="fill:#000000;fill-opacity:1">
    <defs
       id="defs4">
      <path
         id="s-Path_1-d1224"
         d="M516.1892062644961 176.9966289821623 L497.5304079072955 176.9966289821623 L514.612407727051 144.40942788009625 L572.4284104907993 144.40942788009625 L631.2956060138704 332.04863553962696 L586.0940103466037 332.04863553962696 L575.5820075656893 294.46822653770414 L565.3328108066562 295.2566446033479 L528.8036070953372 295.2566446033479 L519.8684091175082 294.46822653770414 L509.093606580353 332.04863553962696 L466.78280627372294 332.04863553962696 Z M565.3328108066562 258.72743462638846 L547.9880080978396 196.18102998466475 L529.5920063640597 258.72743462638846 L565.3328108066562 258.72743462638846 Z M660.4664102848055 176.9966289821623 L635.5004146450046 176.9966289821623 L652.5824050662995 144.1466281238554 L695.6816152149204 144.1466281238554 L757.9652138347628 247.16423282051073 L759.5420249034887 251.6318349422454 L759.5420249034887 144.1466281238554 L800.5388119396212 144.1466281238554 L800.5388119396212 332.04863553962696 L765.5864130313876 332.04863553962696 L702.514421408463 228.24263783988954 L701.2004163616184 224.30063523063654 L701.2004163616184 332.04863553962696 L660.4664102848055 332.04863553962696 L660.4664102848055 176.9966289821623 Z M841.0100119945528 145.72343292694086 C849.2441913249913 144.67222763633708 857.4790473445955 143.8399438220954 865.7132266750341 143.22683210983269 C873.9474060054727 142.61372039756998 882.795217096329 142.30702983016954 892.2560333835609 142.30702983016954 C925.1927507053151 142.30702983016954 950.2480943775408 150.32243179397574 967.4168012622831 166.3532294559477 C984.5855582721488 182.3840271179197 993.1712400302895 206.95582625617953 993.1712400302895 240.06863313636768 C993.1712400302895 273.0053629894028 984.4114235935267 297.0515500839001 966.891239343644 312.2072320137022 C949.3710049686379 327.3629139435043 923.4424816471328 334.93942659263575 889.1024112461091 334.93942659263575 C880.6928190464023 334.93942659263575 872.633400958628 334.6766456333162 864.9248086093903 334.15103358955366 C857.2162413227143 333.62544660835283 849.2448429515953 332.83702854270905 841.0100119945528 331.7858295177457 L841.0100119945528 145.72343292694086 Z M884.1091970806119 296.57062458763085 C892.6942272121487 297.4465360561344 900.8410133899743 297.4462854305175 908.549605739212 296.57037396201395 C916.2581980884497 295.6944624935104 923.0469944236647 293.24176501884267 928.9165962463376 289.2119807872705 C934.7862481941338 285.1821965556983 939.4286366210945 279.1822192871141 942.8450146553041 271.210181820672 C946.2614428146371 263.2381443542299 947.9696067691802 252.59539018897885 947.9696067691802 239.27997697638784 C947.9696067691802 227.54136230124186 946.6117171768165 217.90513314474174 943.8962387428292 210.37197872733395 C941.1807101837185 202.83881177864532 937.5015261276276 196.83778188247015 932.8586364494331 192.37017976073548 C928.2157467712386 187.9025776390008 922.8722081184387 184.79299042243838 916.8278199905399 183.0407790157251 C910.783431862641 181.28855507773096 904.4321777294099 180.4127814533167 897.7748094676972 180.4127814533167 L891.3362373695381 180.4127814533167 L884.1091970806119 180.9383809657984 L884.1091970806119 296.57037396201395 Z M1053.6152215595248 264.2462357730865 L1051.118639539338 259.25303413887013 L1044.4172112941742 245.71883729400633 L1034.9564451320657 226.40303328056325 L1024.1815987354275 204.32782869377115 C1015.5966187290142 186.8076068500459 1005.7856283298497 166.74743222312918 994.7480260364537 144.1466281238554 L1042.0520072223662 144.1466281238554 L1075.9532321681982 221.4098316463469 C1082.2604263179783 207.04321940879254 1087.8666206172893 194.16536092946626 1092.7724165676118 182.77823615074158 C1094.8748146175385 178.04782800712564 1096.9333531845077 173.3614485187586 1098.948232769013 168.71843352775568 C1100.9631123535182 164.07541227111233 1102.7588448986062 159.91463229522697 1104.3356309047704 156.2354294422148 C1105.9124169109346 152.55623285484307 1107.18253741226 149.62141314658538 1108.1462430343636 147.4316282096861 L1109.5916009670254 144.1466281238554 L1155.581602168655 144.1466281238554 L1096.714406645584 264.5090292636869 L1096.714406645584 332.3114415615082 L1053.6152215595248 332.3114415615082 L1053.6152215595248 264.2462357730865 Z " />
    </defs>
    <g
       style="mix-blend-mode:normal;fill:#000000;fill-opacity:1"
       id="g5">
      <use
         xlink:href="#s-Path_1-d1224"
         fill="#E71010"
         fill-opacity="1.0"
         id="use4"
         style="fill:#000000;fill-opacity:1" />
    </g>
  </g>
  <g
     id="g8"
     style="fill:#000000;fill-opacity:1">
    <defs
       id="defs6">
      <path
         id="s-Path_2-d1224"
         d="M463.6113959463119 380.51644760780346 L529.1190001613618 380.51629550628263 C527.9779864892339 384.6657585469559 526.8887837888096 388.34841831042263 525.8513994796754 391.5638926879842 C525.0215855191564 394.2609086279497 524.243582530341 396.7504321249569 523.5173979328156 399.0326931861837 C522.7912133352902 401.31495795720366 522.3762284493737 402.4558974334677 522.272443275066 402.4558974334677 L488.6628410331684 402.4558974334677 L488.97404074477726 405.8790942611654 L488.97404074477726 425.0178950740774 L520.4052450054128 425.0178950740774 L520.4052450054128 447.26869300307817 L488.97404074477726 447.26869300307817 L488.97404074477726 491.61470013465487 L463.6112410624462 491.61470013465487 L463.6112410624462 380.51629550628263 Z M557.5937997421265 399.8108445667267 L546.5461988506318 399.8108445667267 L556.6602006072999 380.51644389801027 L590.8921985626221 380.51644389801027 L625.746595941162 491.6148485263825 L598.9834059036257 491.6148485263825 L592.7593968322753 469.36404317779534 L586.6910061656954 469.83085387458823 L565.062600240326 469.83085387458823 L559.7721977233887 469.36404317779534 L553.3925999256135 491.6148485263825 L528.3409971725464 491.6148485263825 Z M586.6910061656954 448.2024479492188 L576.4214008434296 411.16964516983035 L565.5293960979461 448.2024479492188 L586.6910061656954 448.2024479492188 Z M638.66139510231 381.29444688682565 C643.6406053272249 380.6720437538147 648.2047342116002 380.17926079489257 652.3541972522735 379.8162464017869 C656.5036602929467 379.4532320086812 660.9122004508972 379.27164505157475 665.5802035446168 379.27164505157475 C671.2856725629208 379.27164505157475 676.9650691546794 379.8162464017869 682.6184081590654 380.90544539241796 C688.2717471634514 381.99464438304904 693.3287443319923 383.8878297540043 697.7893996646881 386.5848456939698 C702.2500698365566 389.28186163393525 705.8549203976381 392.91232089741334 708.6036100469591 397.4768467296601 C711.3522700179346 402.0413725619069 712.727000661087 407.8499218938123 712.727000661087 414.9040491287233 C712.727000661087 418.9496453796387 712.1824030206681 422.5801825487738 711.0932077398302 425.7960464546204 C710.0040124589923 429.011910360467 708.6554284382491 431.83877277190595 707.0476040693284 434.27624787044533 C705.4397797004076 436.7137229689847 703.6503832135531 438.8407699928989 701.6793997695922 440.65584566822054 C699.7084163256313 442.47092134354216 697.7893996646881 444.00124813270577 695.9222013950348 445.2460469791413 L695.1441984062194 445.7128502563478 L697.2448020242691 449.13604708404546 L702.3796009756088 457.6940502826692 L708.9926041217805 468.7416437545776 L715.6055924287793 479.71144286327353 L720.5848174928669 488.19164427909845 L722.529817545319 491.4592449607849 L694.0550031253815 491.4592449607849 L664.6465969902038 440.26684417381284 L664.6465969902038 491.6148485263825 L638.66139510231 491.6148485263825 L638.66139510231 381.29444688682565 Z M664.6465969902038 439.3332450389862 L670.0926030727387 436.8436473461152 C671.4411870934819 436.2212479228974 673.0489966232299 435.44324493408203 674.9161948928831 434.5096457992554 C676.7834080017092 433.57604666442876 678.5987878800725 432.35723120950206 680.3622009754181 430.8530436231613 C682.1256140707637 429.3488634564069 683.6298016571045 427.55945954996605 684.87460050354 425.48484674301153 C686.1193993499755 423.410233936057 686.7417987731933 420.86897366321 686.7417987731933 417.8604500988008 C686.7417987731933 414.644660388818 686.2750029155732 411.9733199275265 685.3413963611602 409.847044540596 C684.4078046459199 407.7207691536655 683.1111874081944 406.00886282698184 681.451396256256 404.7122455892563 C679.7916199434903 403.4156283515308 677.8466198910382 402.4820292167042 675.6163960988997 401.9114481847764 C673.386187145934 401.3408597332623 670.9744654317255 401.0556434131622 668.3810083686831 401.0556434131622 L666.5915970426558 401.0556434131622 L664.6465969902038 401.21124697875985 L664.6465969902038 439.3332450389862 Z M737.9342143993381 380.51644760780346 L764.5418008712768 380.51644760780346 L788.1930086318971 438.39964590415957 L789.9824051187516 434.1206443048477 L794.4170028640747 423.4620449077606 L800.0963994558333 409.53584482898714 L805.7757960475919 395.531846677208 L810.132606849289 384.79544549732213 L811.8442163925174 380.51644389801027 L836.7401933212277 380.51644389801027 L842.1861994037627 491.6148485263825 L816.5122046470642 491.6148485263825 L815.4230093662263 426.72964558944705 L797.217807688141 469.05285088577284 L778.3901917476651 469.05285088577284 L759.5626054855347 426.72964558944705 L757.8509959423063 491.6148485263825 L733.7330071632387 491.6148485263825 Z M862.880998774719 380.3608440422058 L928.388615974045 380.3608440422058 C927.3512094061516 384.3025809229498 926.3138325166037 388.03698117204954 925.2764556270558 391.56404478950503 C924.239078737508 395.09110840696053 923.2016721696145 398.7216492858888 922.1642952800667 402.45604582519536 L887.9323121639172 402.45604582519536 C887.9323121639172 402.87103071111187 887.9841008768617 403.4674467428208 888.0878860511693 404.2454497316362 C888.191671225477 405.0234453008652 888.243489616767 405.61986133257415 888.243489616767 406.03484621849066 L888.243489616767 422.37284962692274 L919.6746975871956 422.37284962692274 L919.6746975871956 444.6236475559235 L888.243489616767 444.6236475559235 L888.243489616767 465.94085376968405 L887.9323121639172 469.51964674339297 L929.0107037746347 469.51964674339297 L929.0107037746347 491.6148485263825 L862.8807019912638 491.6148485263825 L862.8807019912638 380.3608440422058 Z M945.5046223712925 381.29444688682565 C950.4838177570346 380.6720437538147 955.0479614805827 380.17926079489257 959.1974096820832 379.8162464017869 C963.3468578835837 379.4532320086812 967.7553980415341 379.27164505157475 972.4233862960809 379.27164505157475 C978.1288701535577 379.27164505157475 983.8082964236619 379.8162464017869 989.4616057497024 380.90544539241796 C995.1149744324339 381.99464438304904 1000.1719270834565 383.8878297540043 1004.6325824161522 386.5848456939698 C1009.093297105539 389.28186163393525 1012.6981476666206 392.91232089741334 1015.4468373159416 397.4768467296601 C1018.1954676085716 402.0413725619069 1019.5702279300694 407.8499218938123 1019.5702279300694 414.9040491287233 C1019.5702279300694 418.9496453796387 1019.0256302896505 422.5801825487738 1017.9364350088126 425.7960464546204 C1016.8472397279747 429.011910360467 1015.4986557072316 431.83877277190595 1013.8908016599653 434.27624787044533 C1012.28300696939 436.7137229689847 1010.4935808041901 438.8407699928989 1008.5226418777474 440.65584566822054 C1006.5516435946138 442.47092134354216 1004.6326417728433 444.00124813270577 1002.7653989856717 445.2460469791413 L1001.9874108360291 445.7128502563478 L1004.0880441324243 449.13604708404546 L1009.2228134054185 457.6940502826692 L1015.8358017124174 468.7416437545776 L1022.4487900194163 479.71144286327353 L1027.4280447618494 488.19164427909845 L1029.3730448143015 491.4592449607849 L1000.8982155551912 491.4592449607849 L971.4898242591862 440.26684417381284 L971.4898242591862 491.6148485263825 L945.5046223712925 491.6148485263825 L945.5046223712925 381.29444688682565 Z M971.4898242591862 439.3332450389862 L976.9358006633756 436.8436473461152 C978.2843846841188 436.2212479228974 979.8922387313851 435.44324493408203 981.7594221618656 434.5096457992554 C983.6266055923461 433.57604666442876 985.4419706315366 432.35723120950206 987.205398566055 430.8530436231613 C988.9688265005734 429.3488634564069 990.4730437652597 427.55945954996605 991.7178129333497 425.48484674301153 C992.9625821014397 423.410233936057 993.5849963638302 420.86897366321 993.5849963638302 417.8604500988008 C993.5849963638302 414.644660388818 993.1182153453829 411.9733199275265 992.1845939517971 409.847044540596 C991.2510319149023 407.7207691536655 989.9543849988313 406.00886282698184 988.2945938468929 404.7122455892563 C986.6348026949545 403.4156283515308 984.6898026425024 402.4820292167042 982.4595936895366 401.9114481847764 C980.2293847365709 401.3408597332623 977.8176630223625 401.0556434131622 975.2241911201472 401.0556434131622 L973.4348243116383 401.0556434131622 L971.4898242591862 401.21124697875985 L971.4898242591862 439.3332450389862 Z " />
    </defs>
    <g
       style="mix-blend-mode:normal;fill:#000000;fill-opacity:1"
       id="g7">
      <use
         xlink:href="#s-Path_2-d1224"
         fill="#E70C0C"
         fill-opacity="1.0"
         id="use6"
         style="fill:#000000;fill-opacity:1" />
    </g>
  </g>
  <g
     id="g10"
     style="fill:#000000;fill-opacity:1">
    <defs
       id="defs8">
      <path
         id="s-Path_3-d1224"
         d="M438.2643019064617 141.87308113494873 C438.2643019064617 118.95052963419914 419.6190457431221 100.31323957443237 396.70047253770827 100.31323957443237 C373.78191455293654 100.31323957443237 355.13664316895483 118.95052963419914 355.13664316895483 141.87308113494873 C355.13664316895483 161.938788504076 369.44078955018995 178.72870927479744 388.38531397901534 182.59103092785836 L388.38531397901534 245.89238016592026 L288.63531374059676 324.2639535343933 L288.63531374059676 249.09235274589537 C307.5878137858963 245.22605089491844 321.88797235889433 228.44011793243408 321.88797235889433 208.3744105633068 C321.88797235889433 185.45185715997695 303.23871316667555 166.81058119455338 280.3241429901409 166.81058119455338 C257.40957281360625 166.81058119455338 238.76031362138747 185.45185715997695 238.76031362138747 208.3744105633068 C238.76031362138747 228.44011793243408 253.0604721943855 245.22605089491844 272.00898443144797 249.09235274589537 L272.00898443144797 324.2639535343933 L172.25898038786886 245.89238016592026 L172.25898038786886 182.59103092785836 C191.2074888197708 178.72870927479744 205.5076550030899 161.938788504076 205.5076550030899 141.87308113494873 C205.51164281132696 118.95052963419914 186.86637142734526 100.31323957443237 163.9518012508106 100.31323957443237 C141.03324136345861 100.31323957443237 122.38797188205717 118.95052963419914 122.38797188205717 141.87308113494873 C122.38797188205717 161.938788504076 136.69212206845282 178.72870927479744 155.63664269211768 182.59103092785836 L155.63664269211768 253.98011188996315 L272.01297223968504 345.40297492433547 L272.01297223968504 417.0314537561226 C253.06446000262258 420.87783178655627 238.76430142962454 437.683703790226 238.76430142962454 457.74941115935326 C238.76430142962454 480.65599049877164 257.40957281360625 499.3132405281067 280.32813079837797 499.3132405281067 C303.2466887831497 499.3132405281067 321.88797235889433 480.65599049877164 321.88797235889433 457.74941115935326 C321.88797235889433 437.683703790226 307.5838259776592 420.87783178655627 288.6393015488338 417.0314537561226 L288.6393015488338 345.40297492433547 L405.0156310964012 253.98011188996315 L405.0156310964012 182.59103092785836 C423.96414333346365 178.72870927479744 438.2643019064617 161.938788504076 438.2643019064617 141.87308113494873 Z M139.01430119120596 141.87308113494873 C139.01430119120596 128.12353880376816 150.19827111139296 116.93557917276382 163.9518012508106 116.93557917276382 C177.70134167941092 116.93557917276382 188.88930131041525 128.12353880376816 188.88930131041525 141.87308113494873 C188.88930131041525 155.62262156354905 177.70134167941092 166.81058119455338 163.9518012508106 166.81058119455338 C150.19827111139296 166.81058119455338 139.01430119120596 155.62262156354905 139.01430119120596 141.87308113494873 Z M396.70047253770827 166.81058119455338 C382.9469481060314 166.81058119455338 371.7629724781036 155.62262156354905 371.7629724781036 141.87308113494873 C371.7629724781036 128.12353880376816 382.9469481060314 116.93557917276382 396.70047253770827 116.93557917276382 C410.45000916114805 116.93557917276382 421.6379725973129 128.12353880376816 421.6379725973129 141.87308113494873 C421.6379725973129 155.62262156354905 410.4539969693851 166.81058119455338 396.70047253770827 166.81058119455338 Z " />
    </defs>
    <g
       style="mix-blend-mode:normal;fill:#000000;fill-opacity:1"
       id="g9">
      <use
         xlink:href="#s-Path_3-d1224"
         fill="#D70505"
         fill-opacity="1.0"
         id="use8"
         style="fill:#000000;fill-opacity:1" />
    </g>
  </g>
</svg>
