<?xml version="1.0" encoding="UTF-8" standalone="no"?>
<!-- Created with Inkscape (http://www.inkscape.org/) -->

<svg
   width="83.575615mm"
   height="105.56875mm"
   viewBox="0 0 83.575615 105.56875"
   version="1.1"
   id="svg1"
   inkscape:version="1.4 (e7c3feb1, 2024-10-09)"
   sodipodi:docname="Logo - for favicon.svg"
   xmlns:inkscape="http://www.inkscape.org/namespaces/inkscape"
   xmlns:sodipodi="http://sodipodi.sourceforge.net/DTD/sodipodi-0.dtd"
   xmlns:xlink="http://www.w3.org/1999/xlink"
   xmlns="http://www.w3.org/2000/svg"
   xmlns:svg="http://www.w3.org/2000/svg">
  <sodipodi:namedview
     id="namedview1"
     pagecolor="#ffffff"
     bordercolor="#000000"
     borderopacity="0.25"
     inkscape:showpageshadow="2"
     inkscape:pageopacity="0.0"
     inkscape:pagecheckerboard="true"
     inkscape:deskcolor="#d1d1d1"
     inkscape:document-units="mm"
     inkscape:zoom="1"
     inkscape:cx="358.5"
     inkscape:cy="101"
     inkscape:window-width="1680"
     inkscape:window-height="997"
     inkscape:window-x="0"
     inkscape:window-y="25"
     inkscape:window-maximized="0"
     inkscape:current-layer="layer1" />
  <defs
     id="defs1">
    <path
       id="s-Path_3-d1224"
       d="m 438.2643,141.87308 c 0,-22.92255 -18.64525,-41.55984 -41.56383,-41.55984 -22.91856,0 -41.56383,18.63729 -41.56383,41.55984 0,20.06571 14.30415,36.85563 33.24867,40.71795 v 63.30135 l -99.75,78.37157 v -75.1716 c 18.9525,-3.8663 33.25266,-20.65223 33.25266,-40.71794 0,-22.92255 -18.64926,-41.56383 -41.56383,-41.56383 -22.91457,0 -41.56383,18.64128 -41.56383,41.56383 0,20.06571 14.30016,36.85164 33.24867,40.71794 v 75.1716 l -99.75,-78.37157 v -63.30135 c 18.94851,-3.86232 33.24868,-20.65224 33.24868,-40.71795 0.004,-22.92255 -18.64129,-41.55984 -41.55586,-41.55984 -22.91856,0 -41.56383,18.63729 -41.56383,41.55984 0,20.06571 14.30415,36.85563 33.24867,40.71795 v 71.38908 l 116.37633,91.42286 v 71.62848 c -18.94851,3.84638 -33.24867,20.65225 -33.24867,40.71796 0,22.90658 18.64527,41.56383 41.56383,41.56383 22.91856,0 41.55984,-18.65725 41.55984,-41.56383 0,-20.06571 -14.30414,-36.87158 -33.24867,-40.71796 v -71.62848 l 116.37633,-91.42286 v -71.38908 c 18.94851,-3.86232 33.24867,-20.65224 33.24867,-40.71795 z m -299.25,0 c 0,-13.74954 11.18397,-24.9375 24.9375,-24.9375 13.74954,0 24.9375,11.18796 24.9375,24.9375 0,13.74954 -11.18796,24.9375 -24.9375,24.9375 -13.75353,0 -24.9375,-11.18796 -24.9375,-24.9375 z m 257.68617,24.9375 c -13.75352,0 -24.9375,-11.18796 -24.9375,-24.9375 0,-13.74954 11.18398,-24.9375 24.9375,-24.9375 13.74954,0 24.9375,11.18796 24.9375,24.9375 0,13.74954 -11.18397,24.9375 -24.9375,24.9375 z" />
  </defs>
  <g
     inkscape:label="Layer 1"
     inkscape:groupmode="layer"
     id="layer1"
     transform="translate(-3.1749997,-2.6458331)">
    <g
       id="g10"
       style="fill:#000000;fill-opacity:1"
       transform="matrix(0.26458333,0,0,0.26458333,-29.206817,-23.895378)">
      <defs
         id="defs8">
        <path
           id="path1"
           d="m 438.2643,141.87308 c 0,-22.92255 -18.64525,-41.55984 -41.56383,-41.55984 -22.91856,0 -41.56383,18.63729 -41.56383,41.55984 0,20.06571 14.30415,36.85563 33.24867,40.71795 v 63.30135 l -99.75,78.37157 v -75.1716 c 18.9525,-3.8663 33.25266,-20.65223 33.25266,-40.71794 0,-22.92255 -18.64926,-41.56383 -41.56383,-41.56383 -22.91457,0 -41.56383,18.64128 -41.56383,41.56383 0,20.06571 14.30016,36.85164 33.24867,40.71794 v 75.1716 l -99.75,-78.37157 v -63.30135 c 18.94851,-3.86232 33.24868,-20.65224 33.24868,-40.71795 0.004,-22.92255 -18.64129,-41.55984 -41.55586,-41.55984 -22.91856,0 -41.56383,18.63729 -41.56383,41.55984 0,20.06571 14.30415,36.85563 33.24867,40.71795 v 71.38908 l 116.37633,91.42286 v 71.62848 c -18.94851,3.84638 -33.24867,20.65225 -33.24867,40.71796 0,22.90658 18.64527,41.56383 41.56383,41.56383 22.91856,0 41.55984,-18.65725 41.55984,-41.56383 0,-20.06571 -14.30414,-36.87158 -33.24867,-40.71796 v -71.62848 l 116.37633,-91.42286 v -71.38908 c 18.94851,-3.86232 33.24867,-20.65224 33.24867,-40.71795 z m -299.25,0 c 0,-13.74954 11.18397,-24.9375 24.9375,-24.9375 13.74954,0 24.9375,11.18796 24.9375,24.9375 0,13.74954 -11.18796,24.9375 -24.9375,24.9375 -13.75353,0 -24.9375,-11.18796 -24.9375,-24.9375 z m 257.68617,24.9375 c -13.75352,0 -24.9375,-11.18796 -24.9375,-24.9375 0,-13.74954 11.18398,-24.9375 24.9375,-24.9375 13.74954,0 24.9375,11.18796 24.9375,24.9375 0,13.74954 -11.18397,24.9375 -24.9375,24.9375 z" />
      </defs>
      <g
         style="mix-blend-mode:normal;fill:#000000;fill-opacity:1"
         id="g9">
        <use
           xlink:href="#s-Path_3-d1224"
           fill="#D70505"
           fill-opacity="1.0"
           id="use8"
           style="fill:#000000;fill-opacity:1" />
      </g>
    </g>
  </g>
</svg>
